<svg width="72" height="68" viewBox="0 0 72 68" fill="none" xmlns="http://www.w3.org/2000/svg">
<g clip-path="url(#clip0_617_1071)">
<path d="M72 42.264L63.3363 24.9357L54.6726 42.264H60.508C56.8347 53.7316 46.0915 62.0671 33.4165 62.0671C17.7206 62.0671 4.94923 49.2962 4.94923 33.5998C4.94923 17.9039 17.7206 5.13257 33.4165 5.13257C45.5106 5.13257 55.8429 12.7267 59.9571 23.389L62.8022 17.698C57.1417 7.2743 46.0942 0.182007 33.4187 0.182007C14.9922 0.181565 0 15.1728 0 33.5998C0 52.0255 14.9922 67.0181 33.4183 67.0181C48.8469 67.0181 61.8382 56.4998 65.6667 42.2644H72V42.264Z" fill="#ECD774"/>
<path d="M15.6769 40.2676H18.8065L19.7563 36.8442H23.5755L24.6057 40.2676H27.8505L23.7146 26.9294H19.7563L15.6769 40.2676ZM20.9818 31.758C21.1996 30.9854 21.3975 29.9759 21.5959 29.1856H21.6347C21.8331 29.9759 22.0712 30.9686 22.3093 31.758L23.1407 34.5912H20.1919L20.9818 31.758Z" fill="#ECD774"/>
<path d="M36.1096 29.285C37.5723 29.285 38.4824 29.5425 39.2149 29.8566L39.8493 27.4419C39.1959 27.126 37.8692 26.7881 36.1485 26.7881C31.7744 26.7881 28.5499 29.3199 28.5265 33.7544C28.5079 35.7133 29.1803 37.453 30.4085 38.6043C31.6357 39.7918 33.3962 40.405 35.8322 40.405C37.5904 40.405 39.3553 39.9698 40.2831 39.6535V32.6279H35.3171V34.983H37.3779V37.772C37.1385 37.893 36.5836 37.9703 35.8914 37.9703C33.4156 37.9703 31.6958 36.3459 31.6958 33.595C31.6958 30.7084 33.5937 29.285 36.1096 29.285Z" fill="#ECD774"/>
<path d="M50.8817 29.4047V26.9316H42.6487V40.2675H51.1596V37.7967H45.6771V34.63H50.5866V32.1737H45.6771V29.4047H50.8817Z" fill="#ECD774"/>
</g>
<defs>
<clipPath id="clip0_617_1071">
<rect width="72" height="68" fill="white"/>
</clipPath>
</defs>
</svg>
