<svg width="94" height="67" viewBox="0 0 94 67" fill="none" xmlns="http://www.w3.org/2000/svg">
<g clip-path="url(#clip0_617_1063)">
<path d="M85.3465 -0.0592651H8.65351C3.8182 -0.0592651 0 3.84836 0 8.5514V58.4487C0 63.2599 3.92707 67.0592 8.65351 67.0592H85.3465C90.1818 67.0592 94 63.1515 94 58.4485V8.5514C94 3.73985 90.0729 -0.0592651 85.3465 -0.0592651ZM88.4922 58.4485C88.4922 60.176 87.0862 61.5786 85.3465 61.5786H8.65351C6.91745 61.5786 5.50781 60.1796 5.50781 58.4485V8.5514C5.50781 6.82393 6.91377 5.42128 8.65351 5.42128H85.3465C87.0826 5.42128 88.4922 6.82028 88.4922 8.5514V58.4485Z" fill="#ECD774"/>
<path d="M36.8546 40.205C38.4548 38.4222 39.4299 36.0727 39.4299 33.4999C39.4299 27.9428 34.8863 23.4218 29.3016 23.4218C23.7168 23.4218 19.1734 27.9428 19.1734 33.4999C19.1734 36.0727 20.1485 38.4222 21.7485 40.2048C17.5547 42.7489 14.7486 47.3436 14.7486 52.5783C14.7486 54.0916 15.9816 55.3185 17.5025 55.3185H41.1004C42.6213 55.3185 43.8543 54.0916 43.8543 52.5783C43.8543 47.3436 41.0483 42.7491 36.8546 40.205ZM29.3016 28.9023C31.8493 28.9023 33.9221 30.9648 33.9221 33.4999C33.9221 36.035 31.8493 38.0976 29.3016 38.0976C26.7538 38.0976 24.6812 36.035 24.6812 33.4999C24.6812 30.9648 26.7538 28.9023 29.3016 28.9023ZM20.6849 49.8382C21.8526 46.2111 25.2739 43.5781 29.3016 43.5781C33.3292 43.5781 36.7503 46.211 37.9182 49.8382H20.6849Z" fill="#ECD774"/>
<path d="M76.4975 26.357H55.8492C54.3284 26.357 53.0953 27.5839 53.0953 29.0973C53.0953 30.6106 54.3284 31.8375 55.8492 31.8375H76.4975C78.0184 31.8375 79.2514 30.6106 79.2514 29.0973C79.2514 27.5839 78.0184 26.357 76.4975 26.357Z" fill="#ECD774"/>
<path d="M76.4974 11.6812H17.5025C15.9816 11.6812 14.7486 12.9081 14.7486 14.4215C14.7486 15.9348 15.9816 17.1618 17.5025 17.1618H76.4974C78.0183 17.1618 79.2513 15.9348 79.2513 14.4215C79.2513 12.9081 78.0183 11.6812 76.4974 11.6812Z" fill="#ECD774"/>
<path d="M76.4975 38.0975H55.8492C54.3284 38.0975 53.0953 39.3244 53.0953 40.8378C53.0953 42.3512 54.3284 43.5781 55.8492 43.5781H76.4975C78.0184 43.5781 79.2514 42.3512 79.2514 40.8378C79.2514 39.3244 78.0184 38.0975 76.4975 38.0975Z" fill="#ECD774"/>
<path d="M70.5979 49.8382H55.8492C54.3284 49.8382 53.0953 51.0651 53.0953 52.5784C53.0953 54.0918 54.3284 55.3187 55.8492 55.3187H70.5979C72.1188 55.3187 73.3518 54.0918 73.3518 52.5784C73.3518 51.0651 72.1188 49.8382 70.5979 49.8382Z" fill="#ECD774"/>
</g>
<defs>
<clipPath id="clip0_617_1063">
<rect width="94" height="67" fill="white"/>
</clipPath>
</defs>
</svg>
