<svg width="71" height="94" viewBox="0 0 71 94" fill="none" xmlns="http://www.w3.org/2000/svg">
<path d="M43.973 57.0882L12.3017 57.0836C11.4281 57.0836 10.7183 57.7917 10.7183 58.6669C10.7183 59.5405 11.4265 60.2503 12.3017 60.2503L43.973 60.2549C44.8465 60.2549 45.5564 59.5467 45.5564 58.6715C45.5562 57.7978 44.8482 57.0882 43.973 57.0882Z" fill="#ECD774"/>
<path d="M37.635 63.4212H18.6351C17.7599 63.4212 17.0517 64.1294 17.0517 65.0045C17.0517 65.8797 17.7599 66.5879 18.6351 66.5879H37.635C38.5102 66.5879 39.2184 65.8797 39.2184 65.0045C39.2183 64.1292 38.5102 63.4212 37.635 63.4212Z" fill="#ECD774"/>
<path d="M28.4998 19.0004C18.8962 19.0004 11.0833 26.8134 11.0833 36.4169C11.0833 46.0205 18.8962 53.8334 28.4998 53.8334C38.1034 53.8334 45.9164 46.0205 45.9164 36.4169C45.9164 26.8134 38.1034 19.0004 28.4998 19.0004ZM14.4099 38.0003H20.6156C20.7909 42.3133 21.6817 46.6025 23.2279 49.6291C18.4529 47.7168 15.0054 43.294 14.4099 38.0003ZM20.6157 34.8337H14.41C15.0056 29.54 18.453 25.1173 23.2281 23.2049C21.6818 26.2315 20.791 30.5207 20.6157 34.8337ZM28.4998 50.667C26.6858 50.667 24.1344 45.7616 23.8132 38.0005H33.1864C32.8652 45.7616 30.3139 50.667 28.4998 50.667ZM23.8132 34.8337C24.1344 27.0726 26.6858 22.1672 28.4998 22.1672C30.3139 22.1672 32.8652 27.0726 33.1864 34.8337H23.8132ZM33.7717 49.6293C35.318 46.6025 36.2088 42.3134 36.3841 38.0005H42.5898C41.9942 43.294 38.5468 47.7168 33.7717 49.6293ZM36.3841 34.8337C36.2088 30.5207 35.318 26.2315 33.7717 23.2049C38.5468 25.1173 41.9944 29.5402 42.5898 34.8337H36.3841Z" fill="#ECD774"/>
<path d="M50.6665 9.50026H47.4999V6.22842C47.4999 2.76896 44.5725 -0.0345606 41.1665 0.000322026C40.6799 0.00536887 40.2541 0.0727591 39.7518 0.199821L5.99419 9.53455C2.66148 9.71505 0 12.457 0 15.8336V69.6667C0 73.1595 2.84034 76 6.33337 76H50.6666C54.1595 76 57 73.1597 57 69.6667V15.8336C56.9999 12.3407 54.1595 9.50026 50.6665 9.50026ZM40.565 3.25969C42.4128 2.78811 44.3331 4.28479 44.3331 6.22842V9.50026H17.9992L40.565 3.25969ZM53.8332 69.6667C53.8332 71.4123 52.4123 72.8333 50.6666 72.8333H6.33337C4.58775 72.8333 3.16676 71.4123 3.16676 69.6667V15.8336C3.16676 14.088 4.58775 12.667 6.33337 12.667H50.6666C52.4123 12.667 53.8332 14.088 53.8332 15.8336V69.6667Z" fill="#ECD774"/>
</svg>
