<svg width="67" height="68" viewBox="0 0 67 68" fill="none" xmlns="http://www.w3.org/2000/svg">
<g clip-path="url(#clip0_617_1077)">
<path d="M33.5 37.5211C34.5841 37.5211 35.4629 36.6401 35.4629 35.5533C35.4629 34.4664 34.5841 33.5854 33.5 33.5854C32.4159 33.5854 31.5371 34.4664 31.5371 35.5533C31.5371 36.6401 32.4159 37.5211 33.5 37.5211Z" fill="#ECD774"/>
<path d="M33.5 0C15.0543 0 0 15.0936 0 33.5854C0 52.0784 15.0552 67.1707 33.5 67.1707C51.9459 67.1707 67 52.0771 67 33.5854C67 15.0927 51.9448 0 33.5 0ZM33.5 8.00276C46.2356 8.00276 56.8216 17.4051 58.7156 29.6496H51.9084C47.5924 29.6496 43.4918 27.9132 40.658 24.8858C36.7846 20.7472 30.2158 20.7459 26.342 24.8857C23.5082 27.9132 19.4076 29.6496 15.0915 29.6496H8.28444C10.1784 17.4051 20.7644 8.00276 33.5 8.00276ZM33.5 41.4569C30.2531 41.4569 27.6113 38.8087 27.6113 35.5533C27.6113 32.2978 30.2531 29.6496 33.5 29.6496C36.7471 29.6496 39.3887 32.2978 39.3887 35.5533C39.3887 38.8087 36.7471 41.4569 33.5 41.4569ZM9.73855 42.9128C11.9854 42.0291 13.6078 41.4569 15.834 41.4569C22.9904 41.4569 28.556 47.8505 27.478 55.0341H27.4734C27.3132 56.1336 26.9981 57.199 26.5436 58.2017C18.8545 56.0147 12.632 50.2958 9.73855 42.9128ZM40.4579 58.2012C39.991 57.172 39.6827 56.1067 39.5266 55.0341H39.522C38.2659 46.6633 45.9735 39.7564 53.9629 41.792C54.8051 42.0066 55.859 42.3614 57.2613 42.9129C54.3681 50.2953 48.1463 56.014 40.4579 58.2012Z" fill="#ECD774"/>
</g>
<defs>
<clipPath id="clip0_617_1077">
<rect width="67" height="68" fill="white"/>
</clipPath>
</defs>
</svg>
