<svg width="66" height="72" viewBox="0 0 66 72" fill="none" xmlns="http://www.w3.org/2000/svg">
<path d="M8.78511 69.2C8.78511 69.644 9.00711 69.866 9.45111 69.866C9.64311 69.866 9.86511 69.824 10.1171 69.74V70.91C9.75711 71.042 9.39711 71.108 9.03711 71.108C8.20911 71.108 7.68111 70.76 7.45311 70.064C6.52911 70.832 5.40711 71.216 4.08711 71.216C3.24711 71.216 2.52711 70.994 1.92711 70.55C1.33911 70.094 1.04511 69.44 1.04511 68.588C1.04511 67.568 1.42311 66.83 2.17911 66.374C2.94711 65.906 3.87111 65.672 4.95111 65.672C5.74311 65.672 6.54111 65.762 7.34511 65.942V65.636C7.34511 64.976 7.12911 64.454 6.69711 64.07C6.26511 63.674 5.65911 63.476 4.87911 63.476C3.78711 63.476 2.73711 63.692 1.72911 64.124V62.72C2.85711 62.336 3.95511 62.144 5.02311 62.144C6.19911 62.144 7.11711 62.462 7.77711 63.098C8.44911 63.722 8.78511 64.628 8.78511 65.816V69.2ZM2.52111 68.516C2.52111 68.996 2.70111 69.362 3.06111 69.614C3.43311 69.854 3.87711 69.974 4.39311 69.974C5.58111 69.974 6.56511 69.554 7.34511 68.714V67.13C6.52911 66.962 5.79711 66.878 5.14911 66.878C4.41711 66.878 3.79311 67.01 3.27711 67.274C2.77311 67.526 2.52111 67.94 2.52111 68.516ZM15.7296 71H10.8516V62.36H15.5856C16.3656 62.36 17.0016 62.564 17.4936 62.972C17.9976 63.38 18.2496 63.956 18.2496 64.7C18.2496 65.132 18.1416 65.522 17.9256 65.87C17.7096 66.218 17.4336 66.464 17.0976 66.608C17.4936 66.74 17.8296 66.98 18.1056 67.328C18.3816 67.676 18.5196 68.102 18.5196 68.606C18.5196 69.338 18.2796 69.92 17.7996 70.352C17.3316 70.784 16.6416 71 15.7296 71ZM12.2916 67.256V69.74H15.5316C16.5636 69.74 17.0796 69.332 17.0796 68.516C17.0796 67.676 16.5816 67.256 15.5856 67.256H12.2916ZM12.2916 63.62V66.014H15.4416C16.3416 66.014 16.7916 65.624 16.7916 64.844C16.7916 64.4 16.6596 64.088 16.3956 63.908C16.1316 63.716 15.8136 63.62 15.4416 63.62H12.2916ZM23.3799 71H21.9399V63.692H18.7539V62.36H26.5479V63.692H23.3799V71ZM27.865 70.01C26.953 69.194 26.497 68.084 26.497 66.68C26.497 65.276 26.953 64.172 27.865 63.368C28.777 62.552 29.857 62.144 31.105 62.144C32.365 62.144 33.445 62.552 34.345 63.368C35.257 64.172 35.713 65.276 35.713 66.68C35.713 68.084 35.257 69.194 34.345 70.01C33.445 70.814 32.365 71.216 31.105 71.216C29.857 71.216 28.777 70.814 27.865 70.01ZM33.373 69.002C33.973 68.426 34.273 67.652 34.273 66.68C34.273 65.708 33.973 64.94 33.373 64.376C32.773 63.8 32.017 63.512 31.105 63.512C30.193 63.512 29.437 63.8 28.837 64.376C28.237 64.94 27.937 65.708 27.937 66.68C27.937 67.652 28.237 68.426 28.837 69.002C29.437 69.566 30.193 69.848 31.105 69.848C32.017 69.848 32.773 69.566 33.373 69.002ZM38.3365 71H36.9685V62.36H38.5345L41.6845 67.148L44.8345 62.36H46.4005V71H45.0325V64.484L42.2245 68.75H41.1445L38.3365 64.484V71ZM55.2722 69.2C55.2722 69.644 55.4942 69.866 55.9382 69.866C56.1302 69.866 56.3522 69.824 56.6042 69.74V70.91C56.2442 71.042 55.8842 71.108 55.5242 71.108C54.6962 71.108 54.1682 70.76 53.9402 70.064C53.0162 70.832 51.8942 71.216 50.5742 71.216C49.7342 71.216 49.0142 70.994 48.4142 70.55C47.8262 70.094 47.5322 69.44 47.5322 68.588C47.5322 67.568 47.9102 66.83 48.6662 66.374C49.4342 65.906 50.3582 65.672 51.4382 65.672C52.2302 65.672 53.0282 65.762 53.8322 65.942V65.636C53.8322 64.976 53.6162 64.454 53.1842 64.07C52.7522 63.674 52.1462 63.476 51.3662 63.476C50.2742 63.476 49.2242 63.692 48.2162 64.124V62.72C49.3442 62.336 50.4422 62.144 51.5102 62.144C52.6862 62.144 53.6042 62.462 54.2642 63.098C54.9362 63.722 55.2722 64.628 55.2722 65.816V69.2ZM49.0082 68.516C49.0082 68.996 49.1882 69.362 49.5482 69.614C49.9202 69.854 50.3642 69.974 50.8802 69.974C52.0682 69.974 53.0522 69.554 53.8322 68.714V67.13C53.0162 66.962 52.2842 66.878 51.6362 66.878C50.9042 66.878 50.2802 67.01 49.7642 67.274C49.2602 67.526 49.0082 67.94 49.0082 68.516ZM60.5344 71H59.0944V63.692H55.9084V62.36H63.7024V63.692H60.5344V71Z" fill="#B3B5B7"/>
<path d="M44.8643 45.8804C44.4554 45.7529 44.0197 45.9808 43.8917 46.39L43.2612 48.4084C42.6934 50.226 41.0325 51.4473 39.1281 51.4473H22.2079C20.3035 51.4473 18.6426 50.226 18.0748 48.4084L12.3945 30.2255C11.6243 27.7597 11.9527 25.0816 13.2959 22.8779C13.5191 22.5118 13.4032 22.0342 13.037 21.8109C12.6708 21.5876 12.1932 21.7035 11.97 22.0698C10.3944 24.655 10.0089 27.7963 10.9125 30.6885L16.5928 48.8713C17.3641 51.3409 19.6206 53 22.2079 53H39.1281C41.7154 53 43.9719 51.3409 44.7433 48.8713L45.3739 46.853C45.5016 46.4437 45.2734 46.0083 44.8643 45.8804Z" fill="#B3B5B7"/>
<path d="M44.5326 17.9933C42.7749 17.229 40.9912 16.6013 39.2176 16.12L40.868 12.3939H44.8192C45.8654 12.3939 46.7166 11.5427 46.7166 10.4965V6.48732C46.7166 5.44109 45.8654 4.58988 44.8192 4.58988H40.9244C40.8291 4.42964 40.7282 4.27209 40.6199 4.11837L38.8001 1.53534C38.1227 0.573994 37.0162 0 35.84 0H25.4957C24.3197 0 23.2131 0.573994 22.5357 1.53545L20.7159 4.11837C19.2338 6.22222 18.9605 8.99095 20.0027 11.3441L22.0795 16.0324C20.2439 16.5214 18.4105 17.1728 16.6173 17.9758C15.8927 18.2996 15.2055 18.7065 14.5747 19.185C14.2331 19.4442 14.1663 19.9311 14.4255 20.2728C14.5782 20.474 14.8099 20.5799 15.0445 20.5799C15.208 20.5799 15.3728 20.5286 15.5131 20.4222C16.0496 20.0152 16.6343 19.6691 17.2513 19.3932C19.0466 18.5892 20.882 17.9448 22.7165 17.4709L23.2555 18.6875C23.2886 18.7621 23.3247 18.8348 23.3631 18.9058C21.5336 19.3619 19.6968 20.0001 17.886 20.8102C14.4821 22.3333 12.7582 26.182 13.8763 29.7624L19.5564 47.9455C19.9218 49.1112 20.9875 49.8944 22.2082 49.8944H39.1278C40.3493 49.8944 41.4146 49.1109 41.7787 47.9448L47.4317 29.8504C48.5626 26.2309 46.7839 22.3581 43.2944 20.8419C41.5069 20.0647 39.7063 19.4437 37.9243 18.9884C37.9808 18.8912 38.034 18.7916 38.0802 18.6873L38.5809 17.5569C40.3576 18.026 42.1482 18.6498 43.9133 19.4172C48.1316 21.2515 50.2812 25.936 48.9132 30.3139L44.9725 42.9314C44.8447 43.3407 45.0728 43.7761 45.4821 43.9041C45.5591 43.9281 45.6371 43.9396 45.7138 43.9396C46.0444 43.9396 46.3509 43.7266 46.4546 43.3945L50.3954 30.7769C52.0004 25.6403 49.4799 20.1445 44.5326 17.9933ZM44.8192 6.14261C45.0093 6.14261 45.1639 6.29727 45.1639 6.48732V10.4965C45.1639 10.6865 45.0093 10.8412 44.8192 10.8412H41.5329C42.0753 9.31961 42.0944 7.66253 41.6175 6.14251H44.8192V6.14261ZM21.9853 5.01264L23.805 2.42972C24.192 1.88057 24.824 1.55273 25.4957 1.55273H35.84C36.5118 1.55273 37.1438 1.88057 37.5308 2.42972L39.3506 5.01264C40.5204 6.67313 40.736 8.85814 39.9135 10.7153L36.6607 18.0585C36.411 18.6219 35.8515 18.9861 35.2353 18.9861H26.1006C25.4843 18.9861 24.925 18.6219 24.6753 18.0586L21.4225 10.7154C20.5999 8.85814 20.8156 6.67303 21.9853 5.01264ZM30.6679 34.8278C32.3353 34.8278 33.6919 33.4713 33.6919 31.8038V26.3957C34.4311 27.1627 34.86 28.1938 34.86 29.301V38.3224C34.86 40.6341 32.9793 42.5148 30.6676 42.5148C28.3559 42.5148 26.4752 40.6341 26.4752 38.3224V29.301C26.4752 28.1942 26.9043 27.163 27.644 26.3955V31.8038C27.644 33.4713 29.0005 34.8278 30.6679 34.8278ZM32.1392 31.8038C32.1392 32.6151 31.4791 33.2751 30.6679 33.2751C29.8566 33.2751 29.1967 32.6151 29.1967 31.8038V20.5387H32.1392V31.8038ZM45.9498 29.3875L40.2968 47.4821C40.1363 47.9963 39.6665 48.3419 39.128 48.3419H22.2084C21.6699 48.3419 21.1996 47.996 21.0386 47.482L15.3587 29.2997C14.4751 26.4699 15.8343 23.4295 18.5203 22.2277C20.5604 21.315 22.6321 20.6321 24.6828 20.1945C25.1137 20.4154 25.5972 20.5389 26.1006 20.5389H27.644V24.4161C25.9541 25.4602 24.9225 27.2902 24.9225 29.3012V38.3226C24.9225 41.4905 27.4997 44.0677 30.6676 44.0677C33.8355 44.0677 36.4127 41.4905 36.4127 38.3226V29.3012C36.4127 27.2894 35.3814 25.4596 33.6919 24.4166V20.5389H35.2353C35.6926 20.5389 36.1341 20.4381 36.5342 20.2541C38.5609 20.699 40.6255 21.3748 42.6756 22.2662C45.4359 23.4655 46.8436 26.527 45.9498 29.3875Z" fill="#B3B5B7"/>
<path d="M39.2025 26.7244H40.2354C40.6642 26.7244 41.0118 26.3769 41.0118 25.948C41.0118 25.5191 40.6642 25.1716 40.2354 25.1716H39.2025C38.7737 25.1716 38.4261 25.5191 38.4261 25.948C38.4261 26.3769 38.7737 26.7244 39.2025 26.7244Z" fill="#B3B5B7"/>
<path d="M39.2025 33.3811H40.2354C40.6642 33.3811 41.0118 33.0336 41.0118 32.6047C41.0118 32.1759 40.6642 31.8284 40.2354 31.8284H39.2025C38.7737 31.8284 38.4261 32.1759 38.4261 32.6047C38.4261 33.0336 38.7737 33.3811 39.2025 33.3811Z" fill="#B3B5B7"/>
<path d="M40.2354 38.4856H39.2025C38.7737 38.4856 38.4261 38.8331 38.4261 39.262C38.4261 39.6908 38.7737 40.0383 39.2025 40.0383H40.2354C40.6642 40.0383 41.0118 39.6908 41.0118 39.262C41.0118 38.8331 40.6642 38.4856 40.2354 38.4856Z" fill="#B3B5B7"/>
</svg>
