<svg width="54" height="74" viewBox="0 0 54 74" fill="none" xmlns="http://www.w3.org/2000/svg">
<path d="M14.772 70.7617H13.332V62.1217H19.65V63.4537H14.772V70.7617ZM20.9425 69.7717C20.0305 68.9557 19.5745 67.8457 19.5745 66.4417C19.5745 65.0377 20.0305 63.9337 20.9425 63.1297C21.8545 62.3137 22.9345 61.9057 24.1825 61.9057C25.4425 61.9057 26.5225 62.3137 27.4225 63.1297C28.3345 63.9337 28.7905 65.0377 28.7905 66.4417C28.7905 67.8457 28.3345 68.9557 27.4225 69.7717C26.5225 70.5757 25.4425 70.9777 24.1825 70.9777C22.9345 70.9777 21.8545 70.5757 20.9425 69.7717ZM26.4505 68.7637C27.0505 68.1877 27.3505 67.4137 27.3505 66.4417C27.3505 65.4697 27.0505 64.7017 26.4505 64.1377C25.8505 63.5617 25.0945 63.2737 24.1825 63.2737C23.2705 63.2737 22.5145 63.5617 21.9145 64.1377C21.3145 64.7017 21.0145 65.4697 21.0145 66.4417C21.0145 67.4137 21.3145 68.1877 21.9145 68.7637C22.5145 69.3277 23.2705 69.6097 24.1825 69.6097C25.0945 69.6097 25.8505 69.3277 26.4505 68.7637ZM30.3575 73.1017H28.9535V69.4657H30.1055C31.1255 67.6657 31.6175 65.2177 31.5815 62.1217H38.0255V69.4657H39.2855V73.1017H37.8815V70.7617H30.3575V73.1017ZM32.9675 63.4177C32.9075 65.7817 32.4755 67.7977 31.6715 69.4657H36.5855V63.4177H32.9675Z" fill="#B3B5B7"/>
<path d="M4.224 24.732C5.364 23.94 6.672 23.544 8.148 23.544C9.42 23.544 10.434 23.832 11.19 24.408C11.946 24.984 12.324 25.788 12.324 26.82C12.324 27.312 12.228 27.774 12.036 28.206C11.856 28.638 11.58 29.034 11.208 29.394C10.848 29.754 10.494 30.06 10.146 30.312C9.81 30.552 9.384 30.822 8.868 31.122C8.808 31.158 8.622 31.266 8.31 31.446C8.01 31.626 7.818 31.74 7.734 31.788C7.662 31.836 7.494 31.944 7.23 32.112C6.978 32.268 6.81 32.382 6.726 32.454C6.654 32.526 6.522 32.64 6.33 32.796C6.15 32.952 6.024 33.084 5.952 33.192C5.892 33.3 5.808 33.438 5.7 33.606C5.604 33.762 5.538 33.918 5.502 34.074C5.466 34.23 5.448 34.398 5.448 34.578L12.414 34.56V36H3.792V35.28C3.792 34.608 3.9 34.002 4.116 33.462C4.332 32.91 4.638 32.442 5.034 32.058C5.442 31.662 5.844 31.332 6.24 31.068C6.636 30.792 7.098 30.498 7.626 30.186C7.746 30.126 7.836 30.078 7.896 30.042C8.988 29.406 9.702 28.92 10.038 28.584C10.554 28.056 10.812 27.462 10.812 26.802C10.812 26.202 10.566 25.746 10.074 25.434C9.594 25.11 8.91 24.948 8.022 24.948C6.726 24.948 5.46 25.38 4.224 26.244V24.732ZM14.8119 34.47C13.8999 33.306 13.4439 31.776 13.4439 29.88C13.4439 27.984 13.8999 26.454 14.8119 25.29C15.7239 24.126 17.0679 23.544 18.8439 23.544C20.6319 23.544 21.9819 24.126 22.8939 25.29C23.8059 26.442 24.2619 27.972 24.2619 29.88C24.2619 31.788 23.8059 33.324 22.8939 34.488C21.9819 35.64 20.6319 36.216 18.8439 36.216C17.0679 36.216 15.7239 35.634 14.8119 34.47ZM21.7599 33.516C22.4079 32.664 22.7319 31.452 22.7319 29.88C22.7319 28.308 22.4079 27.102 21.7599 26.262C21.1239 25.41 20.1519 24.984 18.8439 24.984C17.5359 24.984 16.5639 25.41 15.9279 26.262C15.2919 27.102 14.9739 28.308 14.9739 29.88C14.9739 31.452 15.2919 32.664 15.9279 33.516C16.5639 34.356 17.5359 34.776 18.8439 34.776C20.1519 34.776 21.1239 34.356 21.7599 33.516ZM26.6582 34.47C25.7462 33.306 25.2902 31.776 25.2902 29.88C25.2902 27.984 25.7462 26.454 26.6582 25.29C27.5702 24.126 28.9142 23.544 30.6902 23.544C32.4782 23.544 33.8282 24.126 34.7402 25.29C35.6522 26.442 36.1082 27.972 36.1082 29.88C36.1082 31.788 35.6522 33.324 34.7402 34.488C33.8282 35.64 32.4782 36.216 30.6902 36.216C28.9142 36.216 27.5702 35.634 26.6582 34.47ZM33.6062 33.516C34.2542 32.664 34.5782 31.452 34.5782 29.88C34.5782 28.308 34.2542 27.102 33.6062 26.262C32.9702 25.41 31.9982 24.984 30.6902 24.984C29.3822 24.984 28.4102 25.41 27.7742 26.262C27.1382 27.102 26.8202 28.308 26.8202 29.88C26.8202 31.452 27.1382 32.664 27.7742 33.516C28.4102 34.356 29.3822 34.776 30.6902 34.776C31.9982 34.776 32.9702 34.356 33.6062 33.516ZM37.5324 26.712C37.5324 25.848 37.9104 25.104 38.6664 24.48C39.4224 23.856 40.5324 23.544 41.9964 23.544C43.3524 23.544 44.4444 23.874 45.2724 24.534C46.1004 25.194 46.5264 25.986 46.5504 26.91C46.5864 28.17 46.0284 29.202 44.8764 30.006C46.2804 30.702 46.9824 31.662 46.9824 32.886C46.9824 33.822 46.5684 34.614 45.7404 35.262C44.9244 35.898 43.7124 36.216 42.1044 36.216C40.5084 36.216 39.2724 35.868 38.3964 35.172C37.5324 34.476 37.1004 33.63 37.1004 32.634C37.1004 32.034 37.2744 31.44 37.6224 30.852C37.9824 30.252 38.5044 29.748 39.1884 29.34C38.0844 28.668 37.5324 27.792 37.5324 26.712ZM42.1764 30.492C41.5524 30.324 40.9824 30.144 40.4664 29.952C39.8664 30.24 39.4044 30.612 39.0804 31.068C38.7684 31.524 38.6124 31.992 38.6124 32.472C38.6124 33.204 38.9124 33.78 39.5124 34.2C40.1244 34.608 41.0004 34.812 42.1404 34.812C43.1004 34.812 43.8924 34.644 44.5164 34.308C45.1524 33.96 45.4704 33.51 45.4704 32.958C45.4704 32.49 45.3024 32.094 44.9664 31.77C44.6424 31.434 44.3244 31.206 44.0124 31.086C43.7004 30.966 43.1844 30.798 42.4644 30.582C42.3324 30.546 42.2364 30.516 42.1764 30.492ZM45.0384 27.18C45.0384 26.544 44.7684 26.016 44.2284 25.596C43.6884 25.164 42.9324 24.948 41.9604 24.948C41.0724 24.948 40.3644 25.116 39.8364 25.452C39.3084 25.776 39.0444 26.19 39.0444 26.694C39.0444 27.042 39.1164 27.348 39.2604 27.612C39.4164 27.864 39.6444 28.08 39.9444 28.26C40.2564 28.428 40.5384 28.566 40.7904 28.674C41.0424 28.77 41.3784 28.878 41.7984 28.998C41.8464 29.01 41.8824 29.022 41.9064 29.034C41.9304 29.034 41.9604 29.04 41.9964 29.052C42.0324 29.064 42.0684 29.076 42.1044 29.088C42.1404 29.1 42.3444 29.16 42.7164 29.268C43.1004 29.364 43.3944 29.442 43.5984 29.502C44.5584 28.878 45.0384 28.104 45.0384 27.18Z" fill="#B3B5B7"/>
<path d="M49.7358 16.3771C50.0132 16.3771 50.2853 16.2626 50.4814 16.0634C50.6777 15.8645 50.7905 15.5884 50.7905 15.307C50.7905 15.0255 50.6777 14.7494 50.4814 14.5504C50.2853 14.3513 50.0132 14.2368 49.7358 14.2368C49.4585 14.2368 49.1863 14.3512 48.9902 14.5504C48.794 14.7495 48.6812 15.0255 48.6812 15.307C48.6812 15.5884 48.7939 15.8645 48.9902 16.0634C49.1863 16.2626 49.4585 16.3771 49.7358 16.3771Z" fill="#B3B5B7"/>
<path d="M21.7339 45.4492H21.7182C21.1358 45.4492 20.6635 45.9284 20.6635 46.5194C20.6635 47.1103 21.1358 47.5895 21.7182 47.5895H21.7339C22.3163 47.5895 22.7886 47.1103 22.7886 46.5194C22.7886 45.9284 22.3163 45.4492 21.7339 45.4492Z" fill="#B3B5B7"/>
<path d="M54 41.3841V7.21352C54 5.50887 52.5806 4.12201 50.8359 4.12201H47.2232V3.50371C47.2232 1.57172 45.6146 0 43.6373 0C41.6599 0 40.0513 1.57172 40.0513 3.50371V4.12201H30.5725V3.50371C30.5725 1.57172 28.9639 0 26.9866 0C25.0093 0 23.4007 1.57172 23.4007 3.50371V4.12201H13.9219V3.50371C13.9219 1.57172 12.3133 0 10.3359 0C8.35861 0 6.75 1.57172 6.75 3.50371V4.12201H3.16406C1.4194 4.12201 0 5.50887 0 7.21352V49.6703C0 51.3749 1.4194 52.7618 3.16406 52.7618H42.3553C42.6464 52.7618 42.91 52.6465 43.1008 52.4601C43.1009 52.46 43.101 52.46 43.1011 52.4599L53.6911 42.1128C53.8819 41.9262 54 41.6686 54 41.3841ZM42.1607 3.50371C42.1607 2.70816 42.8231 2.06101 43.6373 2.06101C44.4515 2.06101 45.1138 2.70816 45.1138 3.50371V8.55318C45.1138 9.34873 44.4515 9.99588 43.6373 9.99588C42.8231 9.99588 42.1607 9.34873 42.1607 8.55318V3.50371ZM25.51 3.50371C25.51 2.70816 26.1724 2.06101 26.9866 2.06101C27.8008 2.06101 28.4632 2.70816 28.4632 3.50371V8.55318C28.4632 9.34873 27.8008 9.99588 26.9866 9.99588C26.1724 9.99588 25.51 9.34873 25.51 8.55318V3.50371ZM8.85938 3.50371C8.85938 2.70816 9.52172 2.06101 10.3359 2.06101C11.1502 2.06101 11.8125 2.70816 11.8125 3.50371V8.55318C11.8125 9.34873 11.1502 9.99588 10.3359 9.99588C9.52172 9.99588 8.85938 9.34873 8.85938 8.55318V3.50371ZM2.10938 49.6703V47.781H16.5059C17.0883 47.781 17.5605 47.3196 17.5605 46.7505C17.5605 46.1815 17.0883 45.72 16.5059 45.72H2.10938V17.7247H44.5078C45.0902 17.7247 45.5625 17.2632 45.5625 16.6942C45.5625 16.1251 45.0902 15.6637 44.5078 15.6637H2.10938V7.21352C2.10938 6.6453 2.58251 6.18302 3.16406 6.18302H6.75V8.55318C6.75 10.4852 8.35861 12.0569 10.3359 12.0569C12.3133 12.0569 13.9219 10.4852 13.9219 8.55318V6.18302H23.4007V8.55318C23.4007 10.4852 25.0093 12.0569 26.9866 12.0569C28.9639 12.0569 30.5725 10.4852 30.5725 8.55318V6.18302H40.0513V8.55318C40.0513 10.4852 41.6599 12.0569 43.6373 12.0569C45.6146 12.0569 47.2232 10.4852 47.2232 8.55318V6.18302H50.8359C51.4175 6.18302 51.8906 6.6453 51.8906 7.21352V40.3536H44.4647C42.72 40.3536 41.3006 41.7404 41.3006 43.4451V50.7008H3.16406C2.58251 50.7008 2.10938 50.2385 2.10938 49.6703ZM43.41 49.2433V43.445C43.41 42.8768 43.8831 42.4145 44.4647 42.4145H50.3991L43.41 49.2433Z" fill="#B3B5B7"/>
</svg>
