<svg width="71" height="72" viewBox="0 0 71 72" fill="none" xmlns="http://www.w3.org/2000/svg">
<path d="M66.0581 20.6111C63.6456 20.6111 61.6831 22.5922 61.6831 25.0277V29.4444H58.7664V23.9121C58.7664 22.3622 58.1442 20.8439 57.0575 19.7484L53.7876 16.4474C52.7023 15.3504 51.1983 14.7221 49.6632 14.7221H41.2663V8.83331H45.6413C48.054 8.83331 50.0163 6.85217 50.0163 4.41665C50.0163 1.98114 48.054 0 45.6413 0H28.1413C25.7288 0 23.7663 1.98114 23.7663 4.41665C23.7663 6.85217 25.7288 8.83331 28.1413 8.83331H32.5163V14.7222H27.0362C25.501 14.7222 23.9971 15.3505 22.9118 16.4475L18.7874 20.6112H16.4746C14.062 20.6112 12.0996 22.5922 12.0996 25.0279V29.4445H9.18311V25.0279C9.18311 22.5922 7.22065 20.6112 4.80811 20.6112C2.39556 20.6112 0.433105 22.5922 0.433105 25.0279V42.6945C0.433105 45.13 2.39556 47.1111 4.80811 47.1111C7.22065 47.1111 9.18311 45.13 9.18311 42.6945V38.2778H12.0997V42.6945C12.0997 45.13 14.0622 47.1111 16.4748 47.1111H18.7876L22.912 51.2748C23.9973 52.3717 25.5012 53 27.0364 53H46.7465C48.2818 53 49.7858 52.3717 50.8709 51.2748L57.0575 45.0293C58.1442 43.9337 58.7664 42.4154 58.7664 40.8656V38.2778H61.6831V42.6945C61.6831 45.13 63.6456 47.1111 66.0581 47.1111C68.4706 47.1111 70.4331 45.13 70.4331 42.6945V25.0279C70.4331 22.5922 68.4706 20.6111 66.0581 20.6111ZM67.5166 42.6943C67.5164 43.5065 66.8628 44.1665 66.0581 44.1665C65.2536 44.1665 64.5998 43.5067 64.5998 42.6943V36.8053C64.5998 35.9915 63.9474 35.3331 63.1413 35.3331H57.3081C56.502 35.3331 55.8498 35.9915 55.8498 36.8053V40.8655C55.8498 41.6404 55.5379 42.3996 54.9953 42.9473L48.8087 49.1926C48.2661 49.7406 47.5142 50.0553 46.7465 50.0553H27.0362C26.2685 50.0553 25.5166 49.7406 24.9742 49.1926L20.4225 44.5978C20.149 44.3217 19.7788 44.1664 19.3913 44.1664H16.4748C15.6701 44.1664 15.0163 43.5065 15.0163 42.6942V36.8053C15.0163 35.9915 14.3641 35.3329 13.558 35.3329H7.72473C6.91864 35.3329 6.26635 35.9915 6.26635 36.8053V42.6942C6.26649 43.5067 5.6127 44.1665 4.80811 44.1665C4.00351 44.1665 3.34973 43.5067 3.34973 42.6943V25.0277C3.34973 24.2154 4.00339 23.5553 4.80811 23.5553C5.61283 23.5553 6.26649 24.2152 6.26649 25.0277V30.9166C6.26649 31.7303 6.91878 32.3888 7.72487 32.3888H13.5581C14.3642 32.3888 15.0165 31.7303 15.0165 30.9166V25.0277C15.0165 24.2154 15.6701 23.5553 16.4749 23.5553H19.3914C19.7788 23.5553 20.1492 23.4002 20.4226 23.1241L24.9742 18.5292C25.5168 17.9815 26.2687 17.6666 27.0362 17.6666H33.9748C34.7809 17.6666 35.4331 17.0082 35.4331 16.1944V7.36104C35.4331 6.54728 34.7809 5.88878 33.9748 5.88878H28.1413C27.3368 5.88892 26.6831 5.22891 26.6831 4.41665C26.6831 3.6044 27.3368 2.94439 28.1414 2.94439H45.6414C46.4461 2.94439 47.0999 3.60427 47.0999 4.41665C47.0999 5.22904 46.4463 5.88892 45.6414 5.88892H39.8081C39.002 5.88892 38.3498 6.54742 38.3498 7.36118V16.1946C38.3498 17.0083 39.002 17.6668 39.8081 17.6668H49.6632C50.4308 17.6668 51.1828 17.9816 51.7254 18.5294L54.9953 21.8304C55.5379 22.3782 55.8498 23.1373 55.8498 23.9121V30.9166C55.8498 31.7303 56.502 32.3888 57.3081 32.3888H63.1414C63.9475 32.3888 64.5999 31.7303 64.5999 30.9166V25.0277C64.5999 24.2154 65.2536 23.5553 66.0583 23.5553C66.8628 23.5553 67.5166 24.2152 67.5166 25.0277V42.6943Z" fill="#B3B5B7"/>
<path d="M8.65711 59.732C9.79711 58.94 11.1051 58.544 12.5811 58.544C13.8531 58.544 14.8671 58.832 15.6231 59.408C16.3791 59.984 16.7571 60.788 16.7571 61.82C16.7571 62.312 16.6611 62.774 16.4691 63.206C16.2891 63.638 16.0131 64.034 15.6411 64.394C15.2811 64.754 14.9271 65.06 14.5791 65.312C14.2431 65.552 13.8171 65.822 13.3011 66.122C13.2411 66.158 13.0551 66.266 12.7431 66.446C12.4431 66.626 12.2511 66.74 12.1671 66.788C12.0951 66.836 11.9271 66.944 11.6631 67.112C11.4111 67.268 11.2431 67.382 11.1591 67.454C11.0871 67.526 10.9551 67.64 10.7631 67.796C10.5831 67.952 10.4571 68.084 10.3851 68.192C10.3251 68.3 10.2411 68.438 10.1331 68.606C10.0371 68.762 9.97111 68.918 9.93511 69.074C9.89911 69.23 9.88111 69.398 9.88111 69.578L16.8471 69.56V71H8.22511V70.28C8.22511 69.608 8.33311 69.002 8.54911 68.462C8.76511 67.91 9.07111 67.442 9.46711 67.058C9.87511 66.662 10.2771 66.332 10.6731 66.068C11.0691 65.792 11.5311 65.498 12.0591 65.186C12.1791 65.126 12.2691 65.078 12.3291 65.042C13.4211 64.406 14.1351 63.92 14.4711 63.584C14.9871 63.056 15.2451 62.462 15.2451 61.802C15.2451 61.202 14.9991 60.746 14.5071 60.434C14.0271 60.11 13.3431 59.948 12.4551 59.948C11.1591 59.948 9.89311 60.38 8.65711 61.244V59.732ZM19.245 69.47C18.333 68.306 17.877 66.776 17.877 64.88C17.877 62.984 18.333 61.454 19.245 60.29C20.157 59.126 21.501 58.544 23.277 58.544C25.065 58.544 26.415 59.126 27.327 60.29C28.239 61.442 28.695 62.972 28.695 64.88C28.695 66.788 28.239 68.324 27.327 69.488C26.415 70.64 25.065 71.216 23.277 71.216C21.501 71.216 20.157 70.634 19.245 69.47ZM26.193 68.516C26.841 67.664 27.165 66.452 27.165 64.88C27.165 63.308 26.841 62.102 26.193 61.262C25.557 60.41 24.585 59.984 23.277 59.984C21.969 59.984 20.997 60.41 20.361 61.262C19.725 62.102 19.407 63.308 19.407 64.88C19.407 66.452 19.725 67.664 20.361 68.516C20.997 69.356 21.969 69.776 23.277 69.776C24.585 69.776 25.557 69.356 26.193 68.516ZM35.9333 58.76H37.5713V66.878H39.8753V68.282H37.5713V71H36.0773V68.282H29.2553V66.932L35.9333 58.76ZM36.0773 66.878V60.794L31.1093 66.878H36.0773ZM47.6613 63.692C47.6013 64.64 47.5293 65.468 47.4453 66.176C47.3613 66.884 47.2413 67.568 47.0853 68.228C46.9293 68.876 46.7373 69.404 46.5093 69.812C46.2933 70.22 46.0173 70.544 45.6813 70.784C45.3453 71.024 44.9613 71.144 44.5293 71.144C44.1813 71.144 43.8333 71.078 43.4853 70.946V69.812C43.6773 69.884 43.8693 69.92 44.0613 69.92C44.7813 69.92 45.3033 69.29 45.6273 68.03C45.9633 66.758 46.1733 64.868 46.2573 62.36H52.6113V71H51.1713V63.692H47.6613ZM55.7392 69.578C55.9192 69.734 56.0092 69.956 56.0092 70.244C56.0092 70.532 55.9192 70.76 55.7392 70.928C55.5592 71.084 55.3372 71.162 55.0732 71.162C54.8092 71.162 54.5812 71.084 54.3892 70.928C54.2092 70.76 54.1192 70.532 54.1192 70.244C54.1192 69.956 54.2092 69.734 54.3892 69.578C54.5812 69.422 54.8092 69.344 55.0732 69.344C55.3372 69.344 55.5592 69.422 55.7392 69.578ZM56.6431 66.716C56.6431 65.96 56.7811 65.282 57.0571 64.682C57.3331 64.082 57.6931 63.602 58.1371 63.242C58.5931 62.882 59.0911 62.612 59.6311 62.432C60.1831 62.24 60.7471 62.144 61.3231 62.144C62.3911 62.144 63.2791 62.378 63.9871 62.846V64.25C63.3271 63.734 62.4991 63.476 61.5031 63.476C60.5671 63.476 59.7631 63.746 59.0911 64.286C58.4191 64.826 58.0831 65.624 58.0831 66.68C58.0831 67.724 58.4131 68.522 59.0731 69.074C59.7451 69.614 60.5431 69.884 61.4671 69.884C62.4271 69.884 63.2971 69.65 64.0771 69.182V70.622C63.2611 71.018 62.3251 71.216 61.2691 71.216C60.0211 71.216 58.9351 70.826 58.0111 70.046C57.0991 69.266 56.6431 68.156 56.6431 66.716ZM66.6524 69.578C66.8324 69.734 66.9224 69.956 66.9224 70.244C66.9224 70.532 66.8324 70.76 66.6524 70.928C66.4724 71.084 66.2504 71.162 65.9864 71.162C65.7224 71.162 65.4944 71.084 65.3024 70.928C65.1224 70.76 65.0324 70.532 65.0324 70.244C65.0324 69.956 65.1224 69.734 65.3024 69.578C65.4944 69.422 65.7224 69.344 65.9864 69.344C66.2504 69.344 66.4724 69.422 66.6524 69.578Z" fill="#B3B5B7"/>
<path d="M26.6571 27.732C27.7971 26.94 29.1051 26.544 30.5811 26.544C31.8531 26.544 32.8671 26.832 33.6231 27.408C34.3791 27.984 34.7571 28.788 34.7571 29.82C34.7571 30.312 34.6611 30.774 34.4691 31.206C34.2891 31.638 34.0131 32.034 33.6411 32.394C33.2811 32.754 32.9271 33.06 32.5791 33.312C32.2431 33.552 31.8171 33.822 31.3011 34.122C31.2411 34.158 31.0551 34.266 30.7431 34.446C30.4431 34.626 30.2511 34.74 30.1671 34.788C30.0951 34.836 29.9271 34.944 29.6631 35.112C29.4111 35.268 29.2431 35.382 29.1591 35.454C29.0871 35.526 28.9551 35.64 28.7631 35.796C28.5831 35.952 28.4571 36.084 28.3851 36.192C28.3251 36.3 28.2411 36.438 28.1331 36.606C28.0371 36.762 27.9711 36.918 27.9351 37.074C27.8991 37.23 27.8811 37.398 27.8811 37.578L34.8471 37.56V39H26.2251V38.28C26.2251 37.608 26.3331 37.002 26.5491 36.462C26.7651 35.91 27.0711 35.442 27.4671 35.058C27.8751 34.662 28.2771 34.332 28.6731 34.068C29.0691 33.792 29.5311 33.498 30.0591 33.186C30.1791 33.126 30.2691 33.078 30.3291 33.042C31.4211 32.406 32.1351 31.92 32.4711 31.584C32.9871 31.056 33.2451 30.462 33.2451 29.802C33.2451 29.202 32.9991 28.746 32.5071 28.434C32.0271 28.11 31.3431 27.948 30.4551 27.948C29.1591 27.948 27.8931 28.38 26.6571 29.244V27.732ZM36.507 41.7H35.337L36.327 37.56H37.857L36.507 41.7ZM39.8664 26.76H47.2104V28.2H41.2884L41.0724 31.656C41.7204 31.476 42.4164 31.386 43.1604 31.386C43.7724 31.386 44.3424 31.458 44.8704 31.602C45.3984 31.734 45.8844 31.95 46.3284 32.25C46.7844 32.538 47.1444 32.946 47.4084 33.474C47.6724 33.99 47.8044 34.602 47.8044 35.31C47.8044 36.522 47.3544 37.476 46.4544 38.172C45.5664 38.868 44.4324 39.216 43.0524 39.216C41.5644 39.216 40.2564 38.94 39.1284 38.388V36.948C40.2084 37.524 41.4564 37.812 42.8724 37.812C43.9044 37.812 44.7264 37.596 45.3384 37.164C45.9624 36.732 46.2744 36.114 46.2744 35.31C46.2744 33.606 45.0624 32.754 42.6384 32.754C41.5824 32.754 40.5264 32.946 39.4704 33.33L39.8664 26.76Z" fill="#B3B5B7"/>
</svg>
