<svg width="55" height="72" viewBox="0 0 55 72" fill="none" xmlns="http://www.w3.org/2000/svg">
<path d="M32.5632 46.3355C32.6567 46.9389 33.0356 47.4652 33.5879 47.7585C34.1402 48.0523 34.8022 48.0795 35.3782 47.832L43.9014 44.1876C44.3236 44.0076 44.5337 43.5456 44.386 43.1224L40.1091 30.8221C39.4247 28.8815 37.3843 27.7112 35.297 28.0618L33.9603 28.294C31.6712 28.6805 30.1244 30.7724 30.4854 32.9949L32.5632 46.3355ZM34.6591 46.2534C34.5914 46.2842 34.5126 46.2811 34.4478 46.2447C34.3805 46.2104 34.3344 46.146 34.325 46.0726L32.2414 32.743C32.1986 32.4559 32.2088 32.1638 32.272 31.8803L33.7788 33.0328C34.5065 33.582 35.0494 34.3282 35.3382 35.1771L38.6039 44.5714L34.6591 46.2534ZM34.2707 29.9985L35.607 29.7663C35.7506 29.7414 35.8963 29.7292 36.0423 29.7292C37.1155 29.732 38.0692 30.3929 38.4175 31.3757L42.4375 42.9337L40.2392 43.873L37.0266 34.6327C36.6284 33.4647 35.8812 32.4374 34.8793 31.6813L33.2457 30.4304C33.5492 30.2133 33.8996 30.0656 34.2707 29.9985Z" fill="#B3B5B7"/>
<path d="M2.71967 8.29535L16.1617 12.1911C16.3434 12.2442 16.5123 12.3329 16.6578 12.4521L21.399 16.3373L22.1634 16.9659L28.358 48.6355C28.6711 50.2453 29.7137 51.627 31.1901 52.3873C32.6665 53.1472 34.4149 53.2032 35.9383 52.5389L44.5756 48.7858C45.4171 49.7662 46.8053 50.101 48.0127 49.6147L52.5685 47.7766C54.1026 47.1581 54.8365 45.434 54.2085 43.9251L45.9116 24.0047L46.5272 23.3052C47.6756 21.9968 47.531 20.0214 46.2041 18.8882L36.711 10.7985C36.0718 10.2542 35.2391 9.9822 34.3964 10.0422C33.5533 10.1022 32.7691 10.4892 32.2161 11.1178L30.6808 12.8647L27.2302 10.0369H27.2248L20.8337 4.92368C20.5061 4.66105 20.1282 4.46569 19.7227 4.34897L5.16157 0.127789C3.4754 -0.359379 1.7064 0.589018 1.20903 2.24709L0.564564 4.39963C0.323918 5.19725 0.41622 6.05608 0.820457 6.78724C1.22469 7.51799 1.9079 8.06068 2.71967 8.29535ZM31.4645 14.6841L33.5784 12.2794C33.8187 12.0063 34.1594 11.8381 34.5262 11.8117C34.8925 11.7858 35.2547 11.9041 35.5324 12.1404L45.0256 20.2269C45.6025 20.7194 45.6651 21.5778 45.1661 22.1464L44.1887 23.2581C43.9662 23.5106 43.9069 23.8649 44.0354 24.1737L52.5429 44.5918C52.7943 45.1953 52.5005 45.8851 51.8869 46.1323L47.3295 47.9695C47.0344 48.0883 46.7035 48.0871 46.4093 47.9659C46.1155 47.8447 45.8827 47.6133 45.762 47.3231C45.6701 47.1018 45.4912 46.9263 45.2654 46.8367C45.04 46.7472 44.7874 46.7508 44.5649 46.8477L35.211 50.9124C34.1891 51.3566 33.0172 51.3181 32.0278 50.8083C31.038 50.2984 30.3388 49.3727 30.1278 48.2934L23.8726 16.3142C23.8331 16.1135 23.7243 15.9324 23.5648 15.8015L23.2822 15.5696L26.7307 11.9325L30.209 14.7817C30.5856 15.0898 31.1439 15.0448 31.4645 14.6808V14.6841ZM2.29112 4.9026L2.93394 2.74844C3.03737 2.40151 3.27719 2.1097 3.59984 1.93663C3.92249 1.76398 4.30159 1.72426 4.6539 1.8268L19.206 6.04027C19.3824 6.09134 19.5464 6.17605 19.6885 6.28994L25.3379 10.8054L21.8976 14.4356L17.8099 11.0842C17.4761 10.8098 17.0888 10.606 16.6714 10.4856L3.22733 6.59269C2.49427 6.37991 2.07561 5.62363 2.29112 4.9026Z" fill="#B3B5B7"/>
<path d="M6.9333 29.9985C8.66844 30.035 10.3441 29.408 11.5714 28.2627C12.7987 27.1173 13.471 25.5536 13.4315 23.934C13.4315 21.1722 9.83497 16.1848 8.33569 14.5707C7.97362 14.2066 7.46536 14 6.9333 14C6.40082 14 5.89256 14.2066 5.53049 14.5707C4.03121 16.1848 0.434721 21.1722 0.434721 23.934C0.395624 25.5536 1.0675 27.1173 2.2948 28.2627C3.5221 29.408 5.19774 30.035 6.9333 29.9985ZM6.9333 15.7037C8.57069 17.4661 11.5748 21.9285 11.5748 23.934C11.6177 25.0948 11.1426 26.2199 10.2625 27.0412C9.38281 27.8625 8.17675 28.3059 6.9333 28.2658C5.68943 28.3059 4.4838 27.8625 3.60369 27.0412C2.72359 26.2199 2.24848 25.0948 2.2914 23.934C2.2914 21.9292 5.29633 17.4669 6.9333 15.7037Z" fill="#B3B5B7"/>
<path d="M26.0357 16.0311C25.83 16.0977 25.6532 16.2646 25.5448 16.4953C25.4365 16.7265 25.4053 17.0025 25.4584 17.2624L25.8582 19.2403C25.949 19.687 26.2674 19.9995 26.6324 20C26.6994 20.0004 26.766 19.9898 26.8308 19.9685C27.2588 19.8308 27.5172 19.2806 27.4081 18.7401L27.0084 16.7616C26.956 16.5018 26.8242 16.279 26.6419 16.1421C26.4596 16.0052 26.2415 15.965 26.0357 16.0311Z" fill="#B3B5B7"/>
<path d="M27.4565 22.0748L28.7005 27.3261C28.7941 27.7207 29.1476 28 29.5543 28C29.6226 28.0004 29.6901 27.9924 29.7564 27.9763C30.2273 27.8658 30.5198 27.3958 30.4101 26.9258L29.1665 21.6745C29.0942 21.37 28.8648 21.1268 28.5642 21.0371C28.2637 20.9469 27.9379 21.0239 27.7092 21.2382C27.481 21.453 27.3846 21.7727 27.4565 22.0772V22.0748Z" fill="#B3B5B7"/>
<path d="M21.1171 62.558C21.1171 61.298 21.5311 60.314 22.3591 59.606C23.1991 58.898 24.2491 58.544 25.5091 58.544C27.2371 58.544 28.5271 59.084 29.3791 60.164C30.2431 61.232 30.6751 62.738 30.6751 64.682C30.6751 66.842 30.1591 68.474 29.1271 69.578C28.1071 70.67 26.7691 71.216 25.1131 71.216C24.0451 71.216 23.0551 70.982 22.1431 70.514V69.074C23.0311 69.542 24.0091 69.776 25.0771 69.776C26.2051 69.776 27.1411 69.416 27.8851 68.696C28.6411 67.964 29.0611 66.806 29.1451 65.222C27.9691 66.002 26.6911 66.392 25.3111 66.392C24.1951 66.392 23.2171 66.056 22.3771 65.384C21.5371 64.7 21.1171 63.758 21.1171 62.558ZM25.6171 59.948C24.7291 59.948 24.0091 60.152 23.4571 60.56C22.9171 60.968 22.6471 61.61 22.6471 62.486C22.6471 63.374 22.9291 64.016 23.4931 64.412C24.0571 64.796 24.7891 64.988 25.6891 64.988C27.0211 64.988 28.1671 64.562 29.1271 63.71C28.8991 61.202 27.7291 59.948 25.6171 59.948ZM32.4772 58.76H39.8212V60.2H33.8992L33.6832 63.656C34.3312 63.476 35.0272 63.386 35.7712 63.386C36.3832 63.386 36.9532 63.458 37.4812 63.602C38.0092 63.734 38.4952 63.95 38.9392 64.25C39.3952 64.538 39.7552 64.946 40.0192 65.474C40.2832 65.99 40.4152 66.602 40.4152 67.31C40.4152 68.522 39.9652 69.476 39.0652 70.172C38.1772 70.868 37.0432 71.216 35.6632 71.216C34.1752 71.216 32.8672 70.94 31.7392 70.388V68.948C32.8192 69.524 34.0672 69.812 35.4832 69.812C36.5152 69.812 37.3372 69.596 37.9492 69.164C38.5732 68.732 38.8852 68.114 38.8852 67.31C38.8852 65.606 37.6732 64.754 35.2492 64.754C34.1932 64.754 33.1372 64.946 32.0812 65.33L32.4772 58.76Z" fill="#B3B5B7"/>
</svg>
